ISO-10303-21;
HEADER;
FILE_DESCRIPTION(('FreeCAD Model'),'2;1');
FILE_NAME('Open CASCADE Shape Model','2026-09-25T23:33:48',(''),(''),
  'Open CASCADE STEP processor 7.8','FreeCAD','Unknown');
FILE_SCHEMA(('AUTOMOTIVE_DESIGN { 1 0 10303 214 1 1 1 1 }'));
ENDSEC;
DATA;
#1 = APPLICATION_PROTOCOL_DEFINITION('international standard',
  'automotive_design',2000,#2);
#2 = APPLICATION_CONTEXT(
  'core data for automotive mechanical design processes');
#3 = SHAPE_DEFINITION_REPRESENTATION(#4,#10);
#4 = PRODUCT_DEFINITION_SHAPE('','',#5);
#5 = PRODUCT_DEFINITION('design','',#6,#9);
#6 = PRODUCT_DEFINITION_FORMATION('','',#7);
#7 = PRODUCT('Knob','Knob','',(#8));
#8 = PRODUCT_CONTEXT('',#2,'mechanical');
#9 = PRODUCT_DEFINITION_CONTEXT('part definition',#2,'design');
#10 = ADVANCED_BREP_SHAPE_REPRESENTATION('',(#11,#15),#281);
#11 = AXIS2_PLACEMENT_3D('',#12,#13,#14);
#12 = CARTESIAN_POINT('',(0.,0.,0.));
#13 = DIRECTION('',(0.,0.,1.));
#14 = DIRECTION('',(1.,0.,-0.));
#15 = MANIFOLD_SOLID_BREP('',#16);
#16 = CLOSED_SHELL('',(#17,#50,#75,#95,#104,#129,#149,#174,#211,#253,
    #270));
#17 = ADVANCED_FACE('',(#18),#45,.T.);
#18 = FACE_BOUND('',#19,.F.);
#19 = EDGE_LOOP('',(#20,#30,#37,#38));
#20 = ORIENTED_EDGE('',*,*,#21,.F.);
#21 = EDGE_CURVE('',#22,#24,#26,.T.);
#22 = VERTEX_POINT('',#23);
#23 = CARTESIAN_POINT('',(0.,8.,-4.5));
#24 = VERTEX_POINT('',#25);
#25 = CARTESIAN_POINT('',(0.,8.,12.));
#26 = LINE('',#27,#28);
#27 = CARTESIAN_POINT('',(0.,8.,-4.5));
#28 = VECTOR('',#29,1.);
#29 = DIRECTION('',(0.,0.,1.));
#30 = ORIENTED_EDGE('',*,*,#31,.T.);
#31 = EDGE_CURVE('',#22,#22,#32,.T.);
#32 = CIRCLE('',#33,8.);
#33 = AXIS2_PLACEMENT_3D('',#34,#35,#36);
#34 = CARTESIAN_POINT('',(0.,0.,-4.5));
#35 = DIRECTION('',(0.,0.,-1.));
#36 = DIRECTION('',(0.,1.,0.));
#37 = ORIENTED_EDGE('',*,*,#21,.T.);
#38 = ORIENTED_EDGE('',*,*,#39,.F.);
#39 = EDGE_CURVE('',#24,#24,#40,.T.);
#40 = CIRCLE('',#41,8.);
#41 = AXIS2_PLACEMENT_3D('',#42,#43,#44);
#42 = CARTESIAN_POINT('',(0.,0.,12.));
#43 = DIRECTION('',(0.,0.,-1.));
#44 = DIRECTION('',(0.,1.,0.));
#45 = CYLINDRICAL_SURFACE('',#46,8.);
#46 = AXIS2_PLACEMENT_3D('',#47,#48,#49);
#47 = CARTESIAN_POINT('',(0.,0.,-4.5));
#48 = DIRECTION('',(0.,0.,1.));
#49 = DIRECTION('',(0.,1.,0.));
#50 = ADVANCED_FACE('',(#51),#70,.T.);
#51 = FACE_BOUND('',#52,.F.);
#52 = EDGE_LOOP('',(#53,#61,#62,#63));
#53 = ORIENTED_EDGE('',*,*,#54,.F.);
#54 = EDGE_CURVE('',#24,#55,#57,.T.);
#55 = VERTEX_POINT('',#56);
#56 = CARTESIAN_POINT('',(0.,7.5,12.5));
#57 = LINE('',#58,#59);
#58 = CARTESIAN_POINT('',(0.,8.,12.));
#59 = VECTOR('',#60,1.);
#60 = DIRECTION('',(0.,-0.707106781187,0.707106781187));
#61 = ORIENTED_EDGE('',*,*,#39,.T.);
#62 = ORIENTED_EDGE('',*,*,#54,.T.);
#63 = ORIENTED_EDGE('',*,*,#64,.F.);
#64 = EDGE_CURVE('',#55,#55,#65,.T.);
#65 = CIRCLE('',#66,7.5);
#66 = AXIS2_PLACEMENT_3D('',#67,#68,#69);
#67 = CARTESIAN_POINT('',(0.,0.,12.5));
#68 = DIRECTION('',(0.,0.,-1.));
#69 = DIRECTION('',(0.,1.,0.));
#70 = CONICAL_SURFACE('',#71,8.,0.785398163397);
#71 = AXIS2_PLACEMENT_3D('',#72,#73,#74);
#72 = CARTESIAN_POINT('',(0.,0.,12.));
#73 = DIRECTION('',(-0.,-0.,-1.));
#74 = DIRECTION('',(0.,1.,0.));
#75 = ADVANCED_FACE('',(#76,#87),#90,.T.);
#76 = FACE_BOUND('',#77,.F.);
#77 = EDGE_LOOP('',(#78));
#78 = ORIENTED_EDGE('',*,*,#79,.T.);
#79 = EDGE_CURVE('',#80,#80,#82,.T.);
#80 = VERTEX_POINT('',#81);
#81 = CARTESIAN_POINT('',(0.,7.14,-4.5));
#82 = CIRCLE('',#83,7.14);
#83 = AXIS2_PLACEMENT_3D('',#84,#85,#86);
#84 = CARTESIAN_POINT('',(0.,0.,-4.5));
#85 = DIRECTION('',(0.,0.,-1.));
#86 = DIRECTION('',(0.,1.,0.));
#87 = FACE_BOUND('',#88,.F.);
#88 = EDGE_LOOP('',(#89));
#89 = ORIENTED_EDGE('',*,*,#31,.F.);
#90 = PLANE('',#91);
#91 = AXIS2_PLACEMENT_3D('',#92,#93,#94);
#92 = CARTESIAN_POINT('',(0.,0.,-4.5));
#93 = DIRECTION('',(-0.,-0.,-1.));
#94 = DIRECTION('',(0.,1.,0.));
#95 = ADVANCED_FACE('',(#96),#99,.F.);
#96 = FACE_BOUND('',#97,.F.);
#97 = EDGE_LOOP('',(#98));
#98 = ORIENTED_EDGE('',*,*,#64,.T.);
#99 = PLANE('',#100);
#100 = AXIS2_PLACEMENT_3D('',#101,#102,#103);
#101 = CARTESIAN_POINT('',(0.,0.,12.5));
#102 = DIRECTION('',(-0.,-0.,-1.));
#103 = DIRECTION('',(0.,1.,0.));
#104 = ADVANCED_FACE('',(#105),#124,.F.);
#105 = FACE_BOUND('',#106,.F.);
#106 = EDGE_LOOP('',(#107,#116,#122,#123));
#107 = ORIENTED_EDGE('',*,*,#108,.T.);
#108 = EDGE_CURVE('',#109,#109,#111,.T.);
#109 = VERTEX_POINT('',#110);
#110 = CARTESIAN_POINT('',(0.,7.14,10.5));
#111 = CIRCLE('',#112,7.14);
#112 = AXIS2_PLACEMENT_3D('',#113,#114,#115);
#113 = CARTESIAN_POINT('',(0.,0.,10.5));
#114 = DIRECTION('',(0.,0.,-1.));
#115 = DIRECTION('',(0.,1.,0.));
#116 = ORIENTED_EDGE('',*,*,#117,.T.);
#117 = EDGE_CURVE('',#109,#80,#118,.T.);
#118 = LINE('',#119,#120);
#119 = CARTESIAN_POINT('',(0.,7.14,10.5));
#120 = VECTOR('',#121,1.);
#121 = DIRECTION('',(0.,0.,-1.));
#122 = ORIENTED_EDGE('',*,*,#79,.F.);
#123 = ORIENTED_EDGE('',*,*,#117,.F.);
#124 = CYLINDRICAL_SURFACE('',#125,7.14);
#125 = AXIS2_PLACEMENT_3D('',#126,#127,#128);
#126 = CARTESIAN_POINT('',(0.,0.,10.5));
#127 = DIRECTION('',(-0.,-0.,-1.));
#128 = DIRECTION('',(0.,1.,0.));
#129 = ADVANCED_FACE('',(#130,#141),#144,.T.);
#130 = FACE_BOUND('',#131,.F.);
#131 = EDGE_LOOP('',(#132));
#132 = ORIENTED_EDGE('',*,*,#133,.T.);
#133 = EDGE_CURVE('',#134,#134,#136,.T.);
#134 = VERTEX_POINT('',#135);
#135 = CARTESIAN_POINT('',(0.,5.14,10.5));
#136 = CIRCLE('',#137,5.14);
#137 = AXIS2_PLACEMENT_3D('',#138,#139,#140);
#138 = CARTESIAN_POINT('',(0.,0.,10.5));
#139 = DIRECTION('',(0.,0.,-1.));
#140 = DIRECTION('',(0.,1.,0.));
#141 = FACE_BOUND('',#142,.F.);
#142 = EDGE_LOOP('',(#143));
#143 = ORIENTED_EDGE('',*,*,#108,.F.);
#144 = PLANE('',#145);
#145 = AXIS2_PLACEMENT_3D('',#146,#147,#148);
#146 = CARTESIAN_POINT('',(0.,0.,10.5));
#147 = DIRECTION('',(-0.,-0.,-1.));
#148 = DIRECTION('',(0.,1.,0.));
#149 = ADVANCED_FACE('',(#150),#169,.T.);
#150 = FACE_BOUND('',#151,.F.);
#151 = EDGE_LOOP('',(#152,#161,#167,#168));
#152 = ORIENTED_EDGE('',*,*,#153,.T.);
#153 = EDGE_CURVE('',#154,#154,#156,.T.);
#154 = VERTEX_POINT('',#155);
#155 = CARTESIAN_POINT('',(0.,5.14,0.));
#156 = CIRCLE('',#157,5.14);
#157 = AXIS2_PLACEMENT_3D('',#158,#159,#160);
#158 = CARTESIAN_POINT('',(0.,0.,0.));
#159 = DIRECTION('',(0.,0.,-1.));
#160 = DIRECTION('',(0.,1.,0.));
#161 = ORIENTED_EDGE('',*,*,#162,.T.);
#162 = EDGE_CURVE('',#154,#134,#163,.T.);
#163 = LINE('',#164,#165);
#164 = CARTESIAN_POINT('',(0.,5.14,0.));
#165 = VECTOR('',#166,1.);
#166 = DIRECTION('',(0.,0.,1.));
#167 = ORIENTED_EDGE('',*,*,#133,.F.);
#168 = ORIENTED_EDGE('',*,*,#162,.F.);
#169 = CYLINDRICAL_SURFACE('',#170,5.14);
#170 = AXIS2_PLACEMENT_3D('',#171,#172,#173);
#171 = CARTESIAN_POINT('',(0.,0.,0.));
#172 = DIRECTION('',(0.,0.,1.));
#173 = DIRECTION('',(0.,1.,0.));
#174 = ADVANCED_FACE('',(#175,#178),#206,.T.);
#175 = FACE_BOUND('',#176,.T.);
#176 = EDGE_LOOP('',(#177));
#177 = ORIENTED_EDGE('',*,*,#153,.T.);
#178 = FACE_BOUND('',#179,.F.);
#179 = EDGE_LOOP('',(#180,#191,#199));
#180 = ORIENTED_EDGE('',*,*,#181,.T.);
#181 = EDGE_CURVE('',#182,#184,#186,.T.);
#182 = VERTEX_POINT('',#183);
#183 = CARTESIAN_POINT('',(0.,3.14,0.));
#184 = VERTEX_POINT('',#185);
#185 = CARTESIAN_POINT('',(2.730769122453,-1.55,0.));
#186 = CIRCLE('',#187,3.14);
#187 = AXIS2_PLACEMENT_3D('',#188,#189,#190);
#188 = CARTESIAN_POINT('',(0.,0.,0.));
#189 = DIRECTION('',(0.,0.,-1.));
#190 = DIRECTION('',(0.,1.,0.));
#191 = ORIENTED_EDGE('',*,*,#192,.T.);
#192 = EDGE_CURVE('',#184,#193,#195,.T.);
#193 = VERTEX_POINT('',#194);
#194 = CARTESIAN_POINT('',(-2.730769122453,-1.55,0.));
#195 = LINE('',#196,#197);
#196 = CARTESIAN_POINT('',(2.730769122453,-1.55,0.));
#197 = VECTOR('',#198,1.);
#198 = DIRECTION('',(-1.,0.,0.));
#199 = ORIENTED_EDGE('',*,*,#200,.T.);
#200 = EDGE_CURVE('',#193,#182,#201,.T.);
#201 = CIRCLE('',#202,3.14);
#202 = AXIS2_PLACEMENT_3D('',#203,#204,#205);
#203 = CARTESIAN_POINT('',(0.,0.,0.));
#204 = DIRECTION('',(0.,0.,-1.));
#205 = DIRECTION('',(0.,1.,0.));
#206 = PLANE('',#207);
#207 = AXIS2_PLACEMENT_3D('',#208,#209,#210);
#208 = CARTESIAN_POINT('',(0.,0.,0.));
#209 = DIRECTION('',(-0.,-0.,-1.));
#210 = DIRECTION('',(0.,1.,0.));
#211 = ADVANCED_FACE('',(#212),#248,.F.);
#212 = FACE_BOUND('',#213,.F.);
#213 = EDGE_LOOP('',(#214,#222,#223,#224,#232,#241));
#214 = ORIENTED_EDGE('',*,*,#215,.F.);
#215 = EDGE_CURVE('',#184,#216,#218,.T.);
#216 = VERTEX_POINT('',#217);
#217 = CARTESIAN_POINT('',(2.730769122453,-1.55,10.5));
#218 = LINE('',#219,#220);
#219 = CARTESIAN_POINT('',(2.730769122453,-1.55,0.));
#220 = VECTOR('',#221,1.);
#221 = DIRECTION('',(0.,0.,1.));
#222 = ORIENTED_EDGE('',*,*,#181,.F.);
#223 = ORIENTED_EDGE('',*,*,#200,.F.);
#224 = ORIENTED_EDGE('',*,*,#225,.T.);
#225 = EDGE_CURVE('',#193,#226,#228,.T.);
#226 = VERTEX_POINT('',#227);
#227 = CARTESIAN_POINT('',(-2.730769122453,-1.55,10.5));
#228 = LINE('',#229,#230);
#229 = CARTESIAN_POINT('',(-2.730769122453,-1.55,0.));
#230 = VECTOR('',#231,1.);
#231 = DIRECTION('',(0.,0.,1.));
#232 = ORIENTED_EDGE('',*,*,#233,.T.);
#233 = EDGE_CURVE('',#226,#234,#236,.T.);
#234 = VERTEX_POINT('',#235);
#235 = CARTESIAN_POINT('',(0.,3.14,10.5));
#236 = CIRCLE('',#237,3.14);
#237 = AXIS2_PLACEMENT_3D('',#238,#239,#240);
#238 = CARTESIAN_POINT('',(0.,0.,10.5));
#239 = DIRECTION('',(0.,0.,-1.));
#240 = DIRECTION('',(0.,1.,0.));
#241 = ORIENTED_EDGE('',*,*,#242,.T.);
#242 = EDGE_CURVE('',#234,#216,#243,.T.);
#243 = CIRCLE('',#244,3.14);
#244 = AXIS2_PLACEMENT_3D('',#245,#246,#247);
#245 = CARTESIAN_POINT('',(0.,0.,10.5));
#246 = DIRECTION('',(0.,0.,-1.));
#247 = DIRECTION('',(0.,1.,0.));
#248 = CYLINDRICAL_SURFACE('',#249,3.14);
#249 = AXIS2_PLACEMENT_3D('',#250,#251,#252);
#250 = CARTESIAN_POINT('',(0.,0.,10.5));
#251 = DIRECTION('',(-0.,-0.,-1.));
#252 = DIRECTION('',(0.,1.,0.));
#253 = ADVANCED_FACE('',(#254),#265,.F.);
#254 = FACE_BOUND('',#255,.F.);
#255 = EDGE_LOOP('',(#256,#257,#258,#264));
#256 = ORIENTED_EDGE('',*,*,#192,.F.);
#257 = ORIENTED_EDGE('',*,*,#215,.T.);
#258 = ORIENTED_EDGE('',*,*,#259,.T.);
#259 = EDGE_CURVE('',#216,#226,#260,.T.);
#260 = LINE('',#261,#262);
#261 = CARTESIAN_POINT('',(1.365384561226,-1.55,10.5));
#262 = VECTOR('',#263,1.);
#263 = DIRECTION('',(-1.,0.,0.));
#264 = ORIENTED_EDGE('',*,*,#225,.F.);
#265 = PLANE('',#266);
#266 = AXIS2_PLACEMENT_3D('',#267,#268,#269);
#267 = CARTESIAN_POINT('',(2.730769122453,-1.55,0.));
#268 = DIRECTION('',(0.,-1.,0.));
#269 = DIRECTION('',(-1.,0.,0.));
#270 = ADVANCED_FACE('',(#271),#276,.T.);
#271 = FACE_BOUND('',#272,.F.);
#272 = EDGE_LOOP('',(#273,#274,#275));
#273 = ORIENTED_EDGE('',*,*,#242,.F.);
#274 = ORIENTED_EDGE('',*,*,#233,.F.);
#275 = ORIENTED_EDGE('',*,*,#259,.F.);
#276 = PLANE('',#277);
#277 = AXIS2_PLACEMENT_3D('',#278,#279,#280);
#278 = CARTESIAN_POINT('',(0.,0.,10.5));
#279 = DIRECTION('',(-0.,-0.,-1.));
#280 = DIRECTION('',(0.,1.,0.));
#281 = ( GEOMETRIC_REPRESENTATION_CONTEXT(3) 
GLOBAL_UNCERTAINTY_ASSIGNED_CONTEXT((#285)) GLOBAL_UNIT_ASSIGNED_CONTEXT
((#282,#283,#284)) REPRESENTATION_CONTEXT('Context #1',
  '3D Context with UNIT and UNCERTAINTY') );
#282 = ( LENGTH_UNIT() NAMED_UNIT(*) SI_UNIT(.MILLI.,.METRE.) );
#283 = ( NAMED_UNIT(*) PLANE_ANGLE_UNIT() SI_UNIT($,.RADIAN.) );
#284 = ( NAMED_UNIT(*) SI_UNIT($,.STERADIAN.) SOLID_ANGLE_UNIT() );
#285 = UNCERTAINTY_MEASURE_WITH_UNIT(LENGTH_MEASURE(1.E-07),#282,
  'distance_accuracy_value','confusion accuracy');
#286 = PRODUCT_RELATED_PRODUCT_CATEGORY('part',$,(#7));
#287 = MECHANICAL_DESIGN_GEOMETRIC_PRESENTATION_REPRESENTATION('',(#288)
  ,#281);
#288 = STYLED_ITEM('color',(#289),#15);
#289 = PRESENTATION_STYLE_ASSIGNMENT((#290,#296));
#290 = SURFACE_STYLE_USAGE(.BOTH.,#291);
#291 = SURFACE_SIDE_STYLE('',(#292));
#292 = SURFACE_STYLE_FILL_AREA(#293);
#293 = FILL_AREA_STYLE('',(#294));
#294 = FILL_AREA_STYLE_COLOUR('',#295);
#295 = COLOUR_RGB('',1.,0.698039232327,0.54901964059);
#296 = CURVE_STYLE('',#297,POSITIVE_LENGTH_MEASURE(0.1),#298);
#297 = DRAUGHTING_PRE_DEFINED_CURVE_FONT('continuous');
#298 = COLOUR_RGB('',9.803921802644E-02,9.803921802644E-02,
  9.803921802644E-02);
ENDSEC;
END-ISO-10303-21;
